<?xml version="1.0" encoding="UTF-8" standalone="no"?>
<!DOCTYPE svg PUBLIC "-//W3C//DTD SVG 1.1//EN" "http://www.w3.org/Graphics/SVG/1.1/DTD/svg11.dtd">
<svg width="100%" height="100%" viewBox="0 0 16 16" version="1.1" xmlns="http://www.w3.org/2000/svg" xmlns:xlink="http://www.w3.org/1999/xlink" xml:space="preserve" xmlns:serif="http://www.serif.com/" style="fill-rule:evenodd;clip-rule:evenodd;stroke-linejoin:round;stroke-miterlimit:2;">
    <path d="M15.923,3.981C15.923,1.784 14.139,0 11.942,0L3.981,0C1.784,0 0,1.784 0,3.981L0,12.019C0,14.216 1.784,16 3.981,16L11.942,16C14.139,16 15.923,14.216 15.923,12.019L15.923,3.981Z" style="fill:rgb(235,235,235);"/>
    <path d="M6.969,10.886C6.877,10.931 6.782,10.972 6.684,11.01C6.968,11.159 7.281,11.274 7.624,11.353C7.967,11.431 8.398,11.479 8.919,11.494L8.919,13.292C8.178,13.205 7.435,12.98 6.69,12.618C5.945,12.255 5.308,11.814 4.78,11.294C3.55,11.254 2.582,10.852 1.877,10.087C1.171,9.323 0.819,8.29 0.819,6.989C0.819,6.098 0.988,5.331 1.327,4.689C1.666,4.046 2.145,3.556 2.764,3.216C3.383,2.878 4.11,2.708 4.946,2.708C5.805,2.708 6.546,2.886 7.168,3.24C7.791,3.595 8.266,4.096 8.593,4.742C8.708,4.969 8.803,5.21 8.878,5.465L6.969,10.886ZM8.878,5.465L9.778,2.909L12.296,2.909L15.181,11.104L12.686,11.104L12.237,9.519L9.73,9.519L9.304,11.104L6.892,11.104L6.969,10.886C7.604,10.582 8.102,10.13 8.463,9.531C8.877,8.845 9.084,8.01 9.084,7.025C9.084,6.457 9.016,5.937 8.878,5.465ZM4.946,9.496C5.545,9.496 5.996,9.287 6.3,8.869C6.603,8.451 6.755,7.836 6.755,7.025C6.755,6.196 6.601,5.572 6.294,5.15C5.986,4.728 5.537,4.517 4.946,4.517C4.354,4.517 3.907,4.726 3.603,5.144C3.3,5.562 3.148,6.177 3.148,6.989C3.148,7.809 3.3,8.432 3.603,8.857C3.907,9.283 4.354,9.496 4.946,9.496ZM10.156,7.911L11.811,7.911L10.972,4.872L10.156,7.911Z" style="fill-rule:nonzero;"/>
</svg>
