<?xml version="1.0" encoding="UTF-8" standalone="no"?>
<!DOCTYPE svg PUBLIC "-//W3C//DTD SVG 1.1//EN" "http://www.w3.org/Graphics/SVG/1.1/DTD/svg11.dtd">
<svg width="100%" height="100%" viewBox="0 0 190 32" version="1.1" xmlns="http://www.w3.org/2000/svg" xmlns:xlink="http://www.w3.org/1999/xlink" xml:space="preserve" xmlns:serif="http://www.serif.com/" style="fill-rule:evenodd;clip-rule:evenodd;stroke-linejoin:round;stroke-miterlimit:2;">
    <g transform="matrix(1,0,0,1,6.12525,-1.42109e-14)">
        <path d="M45.928,22.519C45.719,22.62 45.504,22.713 45.282,22.799C45.925,23.137 46.635,23.396 47.411,23.575C48.187,23.753 49.165,23.861 50.343,23.896L50.343,27.966C48.665,27.77 46.983,27.261 45.296,26.44C43.609,25.618 42.167,24.619 40.971,23.441C38.186,23.352 35.994,22.441 34.397,20.71C32.799,18.978 32,16.639 32,13.693C32,11.675 32.384,9.94 33.152,8.485C33.919,7.029 35.004,5.918 36.405,5.15C37.807,4.384 39.453,4 41.346,4C43.292,4 44.97,4.401 46.38,5.204C47.79,6.008 48.866,7.141 49.607,8.606C49.867,9.119 50.081,9.665 50.25,10.242L45.928,22.519ZM50.25,10.242L52.288,4.455L57.991,4.455L64.525,23.012L58.876,23.012L57.858,19.424L52.18,19.424L51.217,23.012L45.754,23.012L45.928,22.519C47.366,21.83 48.494,20.807 49.312,19.45C50.25,17.898 50.718,16.005 50.718,13.774C50.718,12.488 50.563,11.31 50.25,10.242ZM41.346,19.371C42.703,19.371 43.725,18.897 44.412,17.952C45.1,17.005 45.443,15.613 45.443,13.774C45.443,11.899 45.095,10.485 44.399,9.529C43.702,8.574 42.685,8.097 41.346,8.097C40.007,8.097 38.993,8.57 38.307,9.516C37.619,10.462 37.275,11.855 37.275,13.693C37.275,15.55 37.619,16.961 38.307,17.925C38.993,18.889 40.007,19.371 41.346,19.371ZM53.144,15.782L56.894,15.782L54.992,8.9L53.144,15.782Z" style="fill:white;fill-rule:nonzero;"/>
    </g>
    <g transform="matrix(0.427863,0,0,0.427863,-1.13602,-1.13059)">
        <path d="M25.428,46.021L12.635,40.935C12.254,40.784 12.004,40.416 12.004,40.005C12.004,39.596 12.254,39.228 12.635,39.076L30.561,31.965L19.495,20.898L20.909,19.484L33.052,31.626C33.29,31.864 33.393,32.206 33.324,32.536C33.256,32.866 33.026,33.139 32.714,33.263L15.713,40.007L26.968,44.481L25.428,46.021ZM35.52,26.98L40.003,15.701L46.746,32.701C46.87,33.014 47.144,33.243 47.474,33.312C47.541,33.325 47.608,33.332 47.676,33.332C47.939,33.332 48.193,33.228 48.383,33.039L60.525,20.897L59.111,19.483L48.044,30.549L40.934,12.623C40.782,12.242 40.414,11.991 40.004,11.991C39.595,11.991 39.226,12.241 39.074,12.622L33.979,25.44L35.52,26.98ZM67.375,39.073L54.558,33.978L53.018,35.517L64.296,40.001L47.296,46.745C46.983,46.869 46.754,47.142 46.686,47.472C46.617,47.802 46.72,48.144 46.958,48.381L59.1,60.523L60.514,59.109L49.448,48.043L67.375,40.932C67.756,40.78 68.006,40.412 68.006,40.002C68.006,39.592 67.756,39.224 67.375,39.073ZM44.485,53.024L40.005,64.295L33.262,47.295C33.138,46.982 32.864,46.752 32.534,46.684C32.203,46.616 31.863,46.718 31.625,46.957L19.482,59.099L20.897,60.513L31.964,49.446L39.074,67.373C39.226,67.754 39.594,68.004 40.004,68.004C40.413,68.004 40.782,67.754 40.934,67.374L46.026,54.564L44.485,53.024Z" style="fill:white;fill-rule:nonzero;"/>
    </g>
    <g transform="matrix(1,0,0,1,-0.492445,-5.40398)">
        <text x="73.07px" y="27.991px" style="font-family:'AmazonEmber-Thin', 'Amazon Ember', sans-serif;font-weight:250;font-size:25.5px;fill:rgb(255,248,248);">Studio</text>
    </g>
</svg>
