<svg width="682" height="685" viewBox="0 0 682 685" fill="none" xmlns="http://www.w3.org/2000/svg">
<path d="M457.837 389.633L571.571 432.567L574.237 438.033C575.704 441.1 576.904 444.567 576.904 445.767C576.904 452.567 562.371 461.5 528.637 475.1L514.371 480.967L557.704 521.9L600.904 562.967L587.304 577.633C579.837 585.633 571.571 594.7 569.037 597.633L564.237 602.967L518.904 562.833C493.971 540.833 473.171 523.233 472.771 523.767C472.237 524.3 467.704 534.033 462.637 545.367C451.437 570.833 447.037 577.9 441.704 578.433C434.904 579.233 430.237 576.167 427.037 568.833C425.304 565.1 410.904 533.233 394.904 498.033C345.171 388.433 331.571 357.233 331.571 353.5C331.571 348.7 333.837 346.7 339.304 346.7C342.104 346.7 388.771 363.633 457.837 389.633Z" fill="#A4A4AD"/>
<path d="M680.371 349.5C677.837 356.833 673.304 362.3 667.171 365.9C664.104 367.633 642.904 375.767 620.237 384.033L578.771 398.967L550.904 383.633C535.571 375.233 522.771 367.767 522.504 366.967C522.104 365.633 534.104 360.3 560.237 350.167C569.037 346.833 577.171 343.5 578.104 342.833C580.504 341.233 583.837 342.7 534.237 322.967C484.637 303.1 486.371 306.3 512.237 281.9C522.237 272.433 531.171 264.567 532.237 264.3C535.037 263.633 665.437 315.367 670.371 318.967C674.771 322.3 679.171 328.7 680.904 334.433C680.904 334.433 682.904 343.533 680.371 349.5Z" fill="#A4A4AD"/>
<path d="M351.571 2.1665C357.971 4.9665 361.971 8.96654 365.437 16.0332C367.037 19.3665 384.237 62.6998 403.704 112.433C423.037 162.033 439.304 202.567 439.971 202.3C440.504 202.167 468.237 175.1 501.571 142.3C534.771 109.5 562.771 82.6998 563.837 82.6998C564.771 82.8332 573.171 90.1665 582.637 99.2332C595.171 111.367 599.571 116.433 599.571 118.833C599.571 121.367 582.371 139.233 522.637 198.967C480.104 241.367 443.837 276.567 441.837 277.233C436.371 279.367 421.437 278.967 417.037 276.833C408.504 272.3 405.837 266.967 382.904 209.233C370.637 178.167 355.971 141.1 350.237 126.967L340.104 101.233L324.237 142.967C315.571 165.9 307.837 185.5 307.171 186.433C306.371 187.367 304.371 188.033 302.504 187.767C298.371 187.233 263.837 154.967 263.704 151.5C263.571 148.967 312.104 24.2998 316.904 14.6998C319.704 9.23316 323.971 5.09984 329.571 2.1665C338.404 -0.466736 343.404 -0.966736 351.571 2.1665Z" fill="#A4A4AD"/>
<path d="M2.23739 329.1C7.57072 319.1 11.304 317.233 82.9041 289.233C120.371 274.567 162.504 258.033 176.771 252.433L202.504 242.433L142.371 182.167C97.1707 136.833 82.2374 121.233 82.2374 118.833C82.2374 114.567 113.571 84.1665 118.104 84.0332C120.504 84.0332 139.304 101.9 197.571 159.5C243.171 204.433 275.037 236.833 276.504 239.767C281.971 250.967 277.837 267.5 267.837 273.9C265.171 275.633 226.771 291.367 182.637 308.833C138.371 326.433 102.237 340.967 102.237 341.5C102.237 341.9 121.437 349.9 144.904 359.367C185.037 375.633 187.571 376.833 187.571 380.033C187.571 382.567 183.437 387.5 169.437 400.967C158.771 411.5 150.237 418.7 148.771 418.7C145.704 418.7 17.8374 368.833 13.0374 365.767C8.37072 362.7 3.43738 357.233 1.43738 352.7C-0.595949 344.533 -0.595948 338.033 2.23739 329.1Z" fill="#A4A4AD"/>
<path d="M332.104 682.7L325.971 678.833C321.437 675.9 319.037 673.1 316.637 667.767C314.771 663.9 297.171 619.767 277.437 569.767L241.571 478.833L181.571 538.7C134.237 586.033 120.904 598.7 118.237 598.7C113.304 598.567 82.2374 568.7 82.2374 564.033C82.2374 561.367 98.5041 544.567 159.571 484.3C209.304 435.1 238.371 407.233 241.437 406.033C252.104 401.5 266.104 404.7 273.304 413.233C275.171 415.5 279.571 424.967 283.304 434.3C286.904 443.633 301.171 480.7 315.037 516.567C328.771 552.433 340.237 581.233 340.504 580.567C352.904 545.5 355.037 540.7 357.971 540.7C360.771 540.7 361.837 542.7 367.571 557.367C371.037 566.567 377.037 581.1 380.771 589.633C384.504 598.167 387.571 606.167 387.571 607.5C387.571 610.967 365.037 669.367 362.104 673.5C360.771 675.5 357.037 678.3 353.971 679.9L348.237 682.7C341.904 684.533 338.904 685.033 332.104 682.7Z" fill="#A4A4AD"/>
</svg>
